<?xml version="1.0" standalone="no"?>
<!DOCTYPE svg PUBLIC "-//W3C//DTD SVG 20010904//EN"
 "http://www.w3.org/TR/2001/REC-SVG-20010904/DTD/svg10.dtd">
<svg version="1.0" xmlns="http://www.w3.org/2000/svg"
 width="1563.000000pt" height="1563.000000pt" viewBox="0 0 1563.000000 1563.000000"
 preserveAspectRatio="xMidYMid meet">
<metadata>
Created by potrace 1.14, written by Peter Selinger 2001-2017
</metadata>
<g transform="translate(0.000000,1563.000000) scale(0.100000,-0.100000)"
fill="#000000" stroke="none">
<path d="M11837 9334 c-1 -1 -33 -5 -72 -9 -38 -4 -73 -9 -77 -11 -4 -2 -26
-7 -50 -10 -57 -8 -199 -59 -268 -95 -125 -66 -226 -168 -294 -299 -37 -70
-82 -200 -92 -265 -3 -22 -8 -43 -10 -46 -4 -8 -17 -126 -18 -171 -1 -21 -3
-38 -6 -38 -3 -1 -21 -3 -41 -6 -35 -5 -36 -5 -37 32 -4 103 -39 224 -88 306
-31 50 -54 75 -120 128 -46 37 -178 86 -257 95 -144 16 -136 20 -131 -61 13
-200 97 -361 229 -444 46 -28 148 -65 202 -73 40 -6 34 -14 -24 -35 -180 -66
-350 -227 -437 -413 -14 -31 -26 -63 -26 -71 0 -8 -3 -18 -7 -22 -4 -3 -8 -12
-9 -19 -1 -7 -9 -43 -17 -82 -25 -112 -17 -327 16 -435 32 -106 61 -168 114
-245 107 -158 267 -270 458 -321 75 -20 295 -26 385 -12 57 10 181 54 240 86
180 98 320 270 379 467 31 106 33 120 36 260 5 256 -60 441 -215 607 -69 75
-120 114 -214 164 l-60 32 45 11 c188 48 352 158 452 305 60 87 126 246 142
338 3 15 7 43 10 61 3 17 8 39 10 47 3 9 7 66 10 128 3 84 1 112 -8 113 -19 2
-148 4 -150 3z m-738 -1321 c96 -24 198 -108 246 -203 44 -85 64 -286 41 -406
-26 -137 -105 -243 -225 -304 -57 -28 -88 -34 -182 -33 -178 1 -325 129 -368
318 -29 126 -14 317 34 422 43 96 171 196 275 216 46 8 124 4 179 -10z"/>
<path d="M5029 9063 c-1 -10 -2 -537 -3 -1170 l-1 -1153 35 -1 c119 -2 332 -1
335 2 3 3 17 66 41 183 5 29 13 32 29 10 57 -82 171 -162 280 -197 87 -28 117
-32 250 -31 111 1 143 5 220 28 251 77 432 259 518 521 47 143 55 337 21 501
-10 49 -39 130 -67 189 -101 206 -279 356 -494 417 -112 31 -318 32 -418 1
-110 -35 -242 -125 -311 -215 l-20 -26 1 461 c0 254 -1 470 -3 480 -4 15 -22
17 -208 17 -187 0 -204 -1 -205 -17z m931 -1044 c86 -5 187 -56 267 -135 40
-39 96 -142 111 -206 15 -57 15 -207 1 -267 -36 -156 -186 -309 -330 -337
-356 -67 -620 197 -565 566 24 159 131 296 273 350 63 24 133 37 173 34 14 -2
45 -4 70 -5z"/>
<path d="M7105 9073 c-120 -27 -190 -101 -199 -210 -8 -100 41 -185 133 -231
135 -67 305 -13 367 116 21 45 21 137 -1 190 -40 99 -180 162 -300 135z"/>
<path d="M7600 7910 l0 -1170 65 -1 c36 0 121 0 190 0 69 0 133 0 144 0 18 1
18 36 18 1171 l0 1170 -208 0 -209 0 0 -1170z"/>
<path d="M8235 7910 l0 -1170 30 -1 c135 -2 377 0 382 4 3 4 7 2196 3 2320 0
16 -17 17 -208 17 l-207 0 0 -1170z"/>
<path d="M3955 8383 c-11 -2 -56 -11 -100 -19 -83 -16 -197 -67 -276 -122
-249 -174 -376 -494 -333 -842 37 -304 231 -548 517 -649 112 -39 131 -42 287
-47 157 -4 254 14 375 70 92 42 145 79 214 147 77 76 167 222 186 299 l6 25
-208 0 -208 1 -32 -47 c-76 -111 -204 -168 -347 -155 -190 18 -317 121 -368
301 -8 28 -14 61 -14 75 l1 25 607 0 c333 0 609 3 613 7 7 7 8 206 1 253 -22
143 -55 233 -129 347 -104 163 -310 294 -507 323 -52 8 -255 14 -285 8z m298
-371 c111 -55 181 -149 202 -272 l6 -35 -400 0 c-308 0 -401 3 -401 12 0 25
44 129 71 169 74 109 201 166 360 161 85 -2 103 -6 162 -35z"/>
<path d="M6961 8350 c-3 -3 -6 -366 -6 -807 0 -796 0 -803 20 -804 21 0 387 0
395 1 4 0 4 1124 1 1555 l-1 60 -201 0 c-110 0 -204 -2 -208 -5z"/>
<path d="M8804 8350 l-29 -5 0 -168 0 -167 30 -1 c16 0 199 -1 406 -1 l377 -1
-216 -246 c-119 -135 -221 -251 -227 -257 -5 -6 -35 -39 -65 -74 -30 -35 -60
-68 -65 -74 -6 -6 -39 -44 -75 -85 -36 -41 -72 -82 -80 -91 -8 -9 -33 -36 -55
-60 l-39 -44 -1 -164 c0 -90 2 -167 5 -170 9 -12 1310 -8 1310 3 3 51 -2 330
-5 333 -2 3 -193 4 -425 4 l-420 0 27 32 c33 39 350 394 372 417 9 9 29 31 45
50 32 37 178 201 186 209 9 9 157 175 181 203 22 27 23 34 24 192 0 104 -4
165 -10 166 -49 4 -1228 3 -1251 -1z"/>
</g>
</svg>
